<?xml version="1.0" encoding="utf-8"?>
<!-- Generator: Adobe Illustrator 15.0.2, SVG Export Plug-In . SVG Version: 6.00 Build 0)  -->
<!DOCTYPE svg PUBLIC "-//W3C//DTD SVG 1.1//EN" "http://www.w3.org/Graphics/SVG/1.1/DTD/svg11.dtd">
<svg version="1.1" id="レイヤー_1" xmlns="http://www.w3.org/2000/svg" xmlns:xlink="http://www.w3.org/1999/xlink" x="0px"
	 y="0px" width="926.64px" height="1000px" viewBox="0 0 926.64 1000" enable-background="new 0 0 926.64 1000"
	 xml:space="preserve">
<g>
	<path fill="#8FC31F" d="M298.729,160.439C240.909,316.238,158.122,431.48,60.731,531.53
		C-11.047,605.267-40.238,806.959,93.158,910.64c225.136,175.011,479.669,66.993,653.402-101.38
		c215.607-208.93,264.227-640.445-2.207-761.267C497.718-63.861,343.797,39,298.729,160.439z"/>
	<path fill="#FFFFFF" d="M370.424,761.604c-33.633,0-64.456-4.784-89.677-13.644l13.944-39.735
		c62.146,21.773,193.689,16.223,291.615-64.428c87.436-71.997,122.633-185.84,101.777-329.204l41.682-6.061
		c29.178,200.539-47.357,310.694-116.682,367.787C540.441,736.127,448.001,761.589,370.424,761.604z"/>
	<polygon fill="#FFFFFF" points="474.759,287.363 448.434,259.282 479.16,230.462 505.486,258.542 	"/>
	<polygon fill="#FFFFFF" points="306.277,413.724 279.951,385.644 310.678,356.823 337.003,384.903 	"/>
</g>
</svg>
