<?xml version="1.0" encoding="utf-8"?>
<!-- Generator: Adobe Illustrator 15.0.2, SVG Export Plug-In . SVG Version: 6.00 Build 0)  -->
<!DOCTYPE svg PUBLIC "-//W3C//DTD SVG 1.1//EN" "http://www.w3.org/Graphics/SVG/1.1/DTD/svg11.dtd">
<svg version="1.1" id="レイヤー_1" xmlns="http://www.w3.org/2000/svg" xmlns:xlink="http://www.w3.org/1999/xlink" x="0px"
	 y="0px" width="3762px" height="1000px" viewBox="0 0 3762 1000" enable-background="new 0 0 3762 1000" xml:space="preserve">
<g>
	<rect y="164" fill="#8FC31F" width="61" height="830"/>
	<rect x="215" y="379" fill="#8FC31F" width="62" height="615"/>
	<polygon fill="#8FC31F" points="412,472 412,994 473,994 473,533 719,533 719,994 781,994 781,472 	"/>
	<polygon fill="#8FC31F" points="897,994 897,472 959,472 959,933 1205,933 1205,472 1266,472 1266,994 	"/>
	<g>
		<path fill="#8FC31F" d="M1832.746,1000c0,0,272.506-17.161,380.842-153.926c128.15-161.777-24.299-303.122-24.299-303.122
			c64.252-24.959,201.785-93.342,181.052-254.996c-14.809-115.425-66.089-177.952-228.209-242.492l-4.61-43.795
			c-8.434-3.235-26.123-0.769-26.123-0.769C2154.426,353.568,2031.491,709.31,1832.746,1000z"/>
		<path fill="#FFFFFF" d="M2047.914,891.148c-29.863,0-56.125-7.485-70.717-20.529l12.281-13.746
			c23.555,21.027,92.117,22.924,141.938-6.272c36.965-21.664,76.685-67.014,56.017-160.037l17.996-3.998
			c24.299,109.339-30.098,159.671-64.685,179.947C2111.608,883.585,2077.939,891.148,2047.914,891.148z"/>
		<path fill="#FFFFFF" d="M2177.319,467.609c-14.725,0.003-28.218-2.092-39.263-5.967l6.11-17.401
			c27.18,9.544,84.787,7.107,127.664-28.203c38.279-31.523,53.688-81.36,44.558-144.124l18.248-2.653
			c12.768,87.795-20.732,136.018-51.082,161.013C2251.758,456.46,2211.282,467.609,2177.319,467.609z"/>
		<polygon fill="#FFFFFF" points="2222.994,259.989 2211.469,247.696 2224.927,235.085 2236.451,247.378 		"/>
		<polygon fill="#FFFFFF" points="2149.233,315.311 2137.708,303.017 2151.166,290.405 2162.691,302.698 		"/>
		<polygon fill="#FFFFFF" points="2087.766,690.26 2076.24,677.967 2089.699,665.355 2101.224,677.648 		"/>
		
			<rect x="2006.546" y="723.905" transform="matrix(0.6839 0.7296 -0.7296 0.6839 1171.793 -1238.327)" fill="#FFFFFF" width="16.851" height="18.447"/>
	</g>
	<polygon fill="#8FC31F" points="1715.395,472 1653.927,472 1533.836,679.815 1413.746,472 1352.278,472 1503.103,733 1352.278,994 
		1413.746,994 1533.836,786.185 1653.927,994 1715.395,994 1564.57,733 	"/>
	<path fill="#8FC31F" d="M2809,754V472h-369v522h369v-67h-307V754H2809z M2502,533h246v166h-246V533z"/>
	<path fill="#8FC31F" d="M2914,711v283h368V472h-368v67h307v172H2914z M3221,933h-246V767h246V933z"/>
	<polygon fill="#8FC31F" points="3393,472 3393,994 3454,994 3454,533 3700,533 3700,994 3762,994 3762,472 	"/>
</g>
</svg>
